<?xml version="1.0" encoding="UTF-8"?>
<svg width="100%" height="100%" viewBox="0 0 1200 280" fill="none" xmlns="http://www.w3.org/2000/svg" preserveAspectRatio="xMidYMid slice" aria-hidden="true" focusable="false">

  <defs>
    <!-- Chakra theme CSS variables (no hard-coded colors) -->
    <linearGradient id="bg" x1="0" y1="0" x2="1200" y2="280" gradientUnits="userSpaceOnUse">
      <stop offset="0" stop-color="var(--chakra-colors-gray-50)" />
      <stop offset="0.55" stop-color="var(--chakra-colors-purple-50)" />
      <stop offset="1" stop-color="var(--chakra-colors-gray-50)" />
    </linearGradient>

    <linearGradient id="accent" x1="0" y1="0" x2="1" y2="1">
      <stop offset="0" stop-color="var(--chakra-colors-purple-500)" stop-opacity="0.9" />
      <stop offset="1" stop-color="var(--chakra-colors-purple-300)" stop-opacity="0.7" />
    </linearGradient>

    <pattern id="grid" width="40" height="40" patternUnits="userSpaceOnUse">
      <path d="M 40 0 L 0 0 0 40" fill="none" stroke="var(--chakra-colors-gray-200)" stroke-opacity="0.55" stroke-width="1" />
    </pattern>

    <filter id="soft" x="-20%" y="-20%" width="140%" height="140%" color-interpolation-filters="sRGB">
      <feGaussianBlur in="SourceGraphic" stdDeviation="8" result="blur" />
      <feColorMatrix in="blur" type="matrix" values="1 0 0 0 0  0 1 0 0 0  0 0 1 0 0  0 0 0 0.22 0" />
      <feBlend in="SourceGraphic" mode="normal" />
    </filter>

    <filter id="card" x="-10%" y="-10%" width="120%" height="120%" color-interpolation-filters="sRGB">
      <feDropShadow dx="0" dy="10" stdDeviation="10" flood-color="var(--chakra-colors-gray-500)" flood-opacity="0.18" />
    </filter>

    <clipPath id="r">
      <rect x="0" y="0" width="1200" height="280" rx="18" />
    </clipPath>
  </defs>

  <g clip-path="url(#r)">
    <rect width="1200" height="280" fill="url(#bg)" />
    <rect width="1200" height="280" fill="url(#grid)" opacity="0.5" />

    <!-- Soft blobs -->
    <g filter="url(#soft)">
      <circle cx="980" cy="60" r="120" fill="url(#accent)" opacity="0.35" />
      <circle cx="1080" cy="200" r="160" fill="url(#accent)" opacity="0.22" />
      <circle cx="220" cy="220" r="140" fill="url(#accent)" opacity="0.14" />
    </g>

    <!-- Accent ribbon -->
    <path d="M-40 176C120 92 228 56 340 60C476 66 540 138 660 144C808 152 920 80 1240 28V86C992 136 864 212 678 214C520 216 446 148 312 140C174 132 90 166-40 232V176Z" fill="url(#accent)" opacity="0.16" />

    <!-- Task cards -->
    <g filter="url(#card)">
      <rect x="78" y="62" width="420" height="156" rx="16" fill="var(--chakra-colors-white)" stroke="var(--chakra-colors-gray-200)" />
      <rect x="522" y="92" width="320" height="126" rx="16" fill="var(--chakra-colors-white)" stroke="var(--chakra-colors-gray-200)" />
      <rect x="862" y="58" width="260" height="160" rx="16" fill="var(--chakra-colors-white)" stroke="var(--chakra-colors-gray-200)" />
    </g>

    <!-- Left card content -->
    <g>
      <rect x="110" y="92" width="180" height="14" rx="7" fill="var(--chakra-colors-gray-200)" />
      <rect x="110" y="118" width="300" height="12" rx="6" fill="var(--chakra-colors-gray-100)" />
      <rect x="110" y="140" width="268" height="12" rx="6" fill="var(--chakra-colors-gray-100)" />
      <rect x="110" y="170" width="110" height="10" rx="5" fill="var(--chakra-colors-purple-200)" />

      <!-- Check items -->
      <g transform="translate(110 188)">
        <circle cx="10" cy="10" r="10" fill="var(--chakra-colors-purple-100)" />
        <path d="M6.2 10.3L8.6 12.6L14.2 6.8" stroke="var(--chakra-colors-purple-500)" stroke-width="2.4" stroke-linecap="round" stroke-linejoin="round" />
        <rect x="28" y="6" width="190" height="8" rx="4" fill="var(--chakra-colors-gray-200)" />
      </g>
    </g>

    <!-- Middle card content -->
    <g>
      <rect x="552" y="122" width="220" height="12" rx="6" fill="var(--chakra-colors-gray-200)" />
      <rect x="552" y="146" width="260" height="10" rx="5" fill="var(--chakra-colors-gray-100)" />
      <rect x="552" y="166" width="210" height="10" rx="5" fill="var(--chakra-colors-gray-100)" />
      <rect x="552" y="188" width="92" height="10" rx="5" fill="var(--chakra-colors-green-200)" />
    </g>

    <!-- Right card content -->
    <g>
      <rect x="892" y="92" width="140" height="12" rx="6" fill="var(--chakra-colors-gray-200)" />
      <rect x="892" y="118" width="200" height="10" rx="5" fill="var(--chakra-colors-gray-100)" />
      <rect x="892" y="140" width="176" height="10" rx="5" fill="var(--chakra-colors-gray-100)" />

      <!-- Progress pill -->
      <rect x="892" y="166" width="180" height="18" rx="9" fill="var(--chakra-colors-purple-100)" />
      <rect x="892" y="166" width="112" height="18" rx="9" fill="var(--chakra-colors-purple-300)" opacity="0.9" />
      <circle cx="1010" cy="175" r="3" fill="var(--chakra-colors-purple-500)" opacity="0.9" />
      <circle cx="1024" cy="175" r="3" fill="var(--chakra-colors-purple-500)" opacity="0.7" />
      <circle cx="1038" cy="175" r="3" fill="var(--chakra-colors-purple-500)" opacity="0.5" />
    </g>

    <!-- Small sparkles -->
    <g opacity="0.7" stroke="var(--chakra-colors-purple-400)" stroke-linecap="round">
      <path d="M101 46L101 58" stroke-width="2" />
      <path d="M95 52L107 52" stroke-width="2" />

      <path d="M1144 238L1144 250" stroke-width="2" />
      <path d="M1138 244L1150 244" stroke-width="2" />

      <path d="M628 36L628 48" stroke-width="2" />
      <path d="M622 42L634 42" stroke-width="2" />
    </g>
  </g>
</svg>
